<svg width="97" height="73" viewBox="0 0 97 73" version="1.1" xmlns="http://www.w3.org/2000/svg" xmlns:xlink="http://www.w3.org/1999/xlink">
<title>Shape</title>
<desc>Created using Figma</desc>
<g id="Canvas" transform="translate(719 -942)">
<g id="Shape">
<use xlink:href="#path0_fill" transform="translate(-719 942)" fill="#BFBFBF"/>
</g>
</g>
<defs>
<path id="path0_fill" fill-rule="evenodd" d="M 31.2421 24.3333L 63.5754 56.7778L 24.25 56.7778C 15.3179 56.7778 8.08331 49.5183 8.08331 40.5555C 8.08331 31.5928 15.3179 24.3333 24.25 24.3333L 31.2421 24.3333ZM 12.125 5.15056L 23.2396 16.2222C 10.3467 16.8306 0 27.4561 0 40.5556C 0 53.9794 10.8721 64.8889 24.25 64.8889L 71.6588 64.8889L 79.7421 73L 84.875 67.8494L 17.2579 0L 12.125 5.15056ZM 78.2062 24.455C 75.4579 10.5039 63.2116 0 48.5 0C 42.4375 0 36.9812 1.74389 32.3333 4.745L 38.1937 10.6661C 41.2654 9.04389 44.7816 8.11111 48.5 8.11111C 60.7866 8.11111 70.7291 18.0878 70.7291 30.4167L 70.7291 32.4444L 76.7916 32.4444C 83.5008 32.4444 88.9166 37.8789 88.9166 44.6111C 88.9166 49.1939 86.33 53.1683 82.6116 55.2367L 88.4721 61.1172C 93.605 57.4267 97 51.4244 97 44.6111C 97 33.9044 88.7146 25.2256 78.2062 24.455Z"/>
</defs>
</svg>

