<svg width="81" height="72" viewBox="0 0 81 72" version="1.1" xmlns="http://www.w3.org/2000/svg" xmlns:xlink="http://www.w3.org/1999/xlink">
<title>Shape</title>
<desc>Created using Figma</desc>
<g id="Canvas" transform="translate(712 -1931)">
<g id="Shape" opacity="0.231285">
<use xlink:href="#path0_fill" transform="translate(-712 1931)"/>
</g>
</g>
<defs>
<path id="path0_fill" fill-rule="evenodd" d="M 64.1207 48L 56.1057 48L 56.1057 56L 64.1207 56L 64.1207 48ZM 64.1207 32L 56.1057 32L 56.1057 40L 64.1207 40L 64.1207 32ZM 72.1358 64L 40.0754 64L 40.0754 56L 48.0905 56L 48.0905 48L 40.0754 48L 40.0754 40L 48.0905 40L 48.0905 32L 40.0754 32L 40.0754 24L 72.1358 24L 72.1358 64ZM 32.0604 16L 24.0453 16L 24.0453 8L 32.0604 8L 32.0604 16ZM 32.0604 32L 24.0453 32L 24.0453 24L 32.0604 24L 32.0604 32ZM 32.0604 48L 24.0453 48L 24.0453 40L 32.0604 40L 32.0604 48ZM 32.0604 64L 24.0453 64L 24.0453 56L 32.0604 56L 32.0604 64ZM 16.0302 16L 8.01508 16L 8.01508 8L 16.0302 8L 16.0302 16ZM 16.0302 32L 8.01508 32L 8.01508 24L 16.0302 24L 16.0302 32ZM 16.0302 48L 8.01508 48L 8.01508 40L 16.0302 40L 16.0302 48ZM 16.0302 64L 8.01508 64L 8.01508 56L 16.0302 56L 16.0302 64ZM 40.0755 16L 40.0755 0L 0 0L 0 72L 80.1509 72L 80.1509 16L 40.0755 16Z"/>
</defs>
</svg>
